<svg xmlns="http://www.w3.org/2000/svg" fill="#fff" width="616" height="150" viewBox="0 0 616.1 150"><path d="M84.3 146.9H59.2l-4.7-27.8H29.6l-4.5 27.8H0L26.3 3.1h31.4L84.3 146.9zM32.5 99h19l-9.8-65.5L32.5 99z"/><path d="M155.5 146.9h-25.5c-22.2 0-34.5-12.2-34.5-36.1V39.2c0-24.1 12.2-36.1 34.5-36.1h24.1v22.2h-22.4c-6.9 0-11.6 4.9-11.6 14.7v69.8c0 10 3.3 14.7 12.7 14.7h22.9V146.9z"/><path d="M172.6 36.1C172.6 13.1 186.7 0 209 0 231.2 0 245.5 13.1 245.5 36.1v77.8c0 22.9-14.3 36.1-36.5 36.1 -22.2 0-36.3-13.3-36.3-36.1V36.1zM197.1 113.1c0 10.6 4.5 14.7 11.8 14.7 7.6 0 12-4.1 12-14.7V35.7c0-10.6-4.5-14.7-12-14.7 -7.3 0-11.8 4.1-11.8 14.7V113.1z"/><path d="M318.3 115.3L335.7 3.1h36.5v143.9h-22.4V30l-18 110c-0.8 4.9-3.1 6.9-7.8 6.9h-12.9c-4.1 0-6.3-1.6-7.6-6.9l-18-108.8v115.7h-22.4V3.1h36.7L318.3 115.3z"/><path d="M415.9 25.3v36.3h33.1v22.2H415.9v28c0 10 2.9 12.9 12.2 12.9h26.1v22.2h-31.6c-22.2 0-31.2-9.4-31.2-34.5V3.1h61.8v22.2H415.9z"/><path d="M491.4 146.9V24.3h-24.5V3.1h72.2v21.2h-24.5v122.7H491.4z"/><path d="M557.1 124.7h18.4c11.8 0 15.3-6.3 15.5-15.7 0.2-8.8-1.6-15.9-10.4-21.4l-6.3-3.9c-14.1-8.8-23.3-21.4-23.3-44.3 0-25.3 17.3-36.5 39.4-36.3h17.6v22.2h-17.6c-8 0-14.9 4.9-14.9 14.7 0 11 2.9 16.5 14.9 24.7l6.9 4.7c15.3 10.4 19 22.4 18.8 38.4 -0.2 23.9-10.2 39.4-39.2 39.4h-19.8V124.7z"/></svg>